<svg width="108" height="33" viewBox="0 0 108 33" fill="none" xmlns="http://www.w3.org/2000/svg">
<path d="M8.51468 1L8.7209 18.0852C8.7209 21.5834 11.5988 24.4621 15.0978 24.4621C18.5969 24.4621 21.4748 21.5851 21.4748 18.0852C21.4748 14.6069 18.6374 11.7431 15.1641 11.7083" stroke="#fff" stroke-width="5" stroke-miterlimit="10"/>
<path d="M15.2992 5.99146C21.9287 6.05937 27.3458 11.5336 27.3441 18.1656C27.3441 24.8423 21.8476 30.3348 15.17 30.3339C8.49244 30.3331 3 24.8349 3 18.1581" stroke="#fff" stroke-width="5" stroke-miterlimit="10"/>
<path d="M36.5412 8.90405C36.7814 8.90405 37.0119 8.99951 37.1818 9.16942C37.3517 9.33934 37.4472 9.56982 37.4472 9.81007V15.3448H37.4961C37.9149 14.6935 38.5246 14.1874 39.2418 13.8955C39.9677 13.5922 40.7467 13.4366 41.5334 13.4375C42.2132 13.4405 42.8848 13.5853 43.5054 13.8627C44.126 14.14 44.6819 14.5438 45.1376 15.0483C45.6411 15.5932 46.05 16.2908 46.3641 17.1411C46.6783 17.9913 46.8351 19.0028 46.8345 20.1755C46.8345 21.3482 46.6778 22.3596 46.3641 23.2099C46.0505 24.0602 45.6417 24.758 45.1376 25.3035C44.6819 25.8078 44.1259 26.2115 43.5053 26.4886C42.8847 26.7659 42.2131 26.9106 41.5334 26.9135C40.5915 26.9135 39.7493 26.7647 39.0066 26.4671C38.2799 26.1855 37.681 25.6484 37.3221 24.9565H37.2724V25.6853C37.2725 25.8042 37.2492 25.9221 37.2038 26.032C37.1583 26.1419 37.0917 26.2418 37.0076 26.3259C36.9235 26.4101 36.8237 26.4768 36.7138 26.5224C36.6039 26.5679 36.4862 26.5913 36.3673 26.5913H34.8343C34.594 26.5913 34.3636 26.4959 34.1936 26.326C34.0238 26.1561 33.9283 25.9256 33.9283 25.6853V9.81007C33.9283 9.56982 34.0238 9.33934 34.1936 9.16942C34.3636 8.99951 34.594 8.90405 34.8343 8.90405H36.5412ZM43.1442 18.6401C43.0409 18.1737 42.8565 17.7291 42.5993 17.3266C42.3629 16.9581 42.045 16.649 41.67 16.423C41.299 16.1994 40.8491 16.089 40.3201 16.0918C39.8525 16.0793 39.3903 16.1938 38.9826 16.423C38.6023 16.6463 38.2798 16.9558 38.041 17.3266C37.7838 17.7291 37.5993 18.1737 37.4961 18.6401C37.3789 19.1519 37.3209 19.6754 37.323 20.2003C37.3217 20.7171 37.3798 21.2322 37.4961 21.7358C37.5992 22.2022 37.7836 22.6468 38.041 23.0492C38.2797 23.4203 38.6022 23.7301 38.9826 23.9536C39.3905 24.1825 39.8526 24.297 40.3201 24.2849C40.8485 24.2849 41.2984 24.1745 41.67 23.9536C42.045 23.7274 42.363 23.4179 42.5993 23.0492C42.8566 22.6468 43.0411 22.2022 43.1442 21.7358C43.2604 21.2322 43.3185 20.7171 43.3173 20.2003C43.3191 19.6753 43.2607 19.1518 43.1434 18.6401H43.1442Z" fill="#fff"/>
<path d="M49.5375 13.7843C49.7791 13.7843 50.0108 13.8803 50.1817 14.0511C50.3525 14.222 50.4485 14.4537 50.4485 14.6953V16.1595H50.4982C50.6645 15.7606 50.8898 15.389 51.1665 15.0572C51.4447 14.7226 51.7713 14.4315 52.1355 14.1934C52.4962 13.955 52.8881 13.7671 53.2999 13.6352C53.7163 13.5028 54.1508 13.436 54.5877 13.4373C54.8483 13.4418 55.1067 13.4837 55.3554 13.5615V16.8311C55.1898 16.798 54.9916 16.7704 54.7608 16.7483C54.5389 16.7242 54.3157 16.712 54.0925 16.7119C53.4481 16.7119 52.9032 16.819 52.4577 17.0332C52.0313 17.2325 51.6613 17.5347 51.381 17.9127C51.1011 18.3023 50.9038 18.7451 50.8013 19.2138C50.6818 19.7417 50.6234 20.2816 50.6274 20.8229V25.6818C50.6274 25.9234 50.5314 26.1551 50.3606 26.326C50.1897 26.4968 49.958 26.5928 49.7164 26.5928H48.0203C47.7787 26.5928 47.547 26.4968 47.3761 26.326C47.2053 26.1551 47.1093 25.9234 47.1093 25.6818V14.6986C47.1093 14.457 47.2053 14.2253 47.3761 14.0544C47.547 13.8836 47.7787 13.7876 48.0203 13.7876L49.5375 13.7843Z" fill="#fff"/>
<path d="M55.5599 17.8711C55.5177 17.871 55.4761 17.8622 55.4376 17.8451C55.399 17.8281 55.3644 17.8031 55.336 17.7719C55.3077 17.7408 55.2862 17.704 55.2728 17.6641C55.2594 17.6241 55.2545 17.5818 55.2584 17.5398C55.3379 16.8618 55.5345 16.2876 55.8481 15.8172C56.2041 15.2792 56.6787 14.8298 57.2353 14.5037C57.8228 14.1638 58.4634 13.9252 59.1301 13.7981C59.8274 13.6582 60.5367 13.5875 61.2478 13.5869C61.9035 13.5876 62.5585 13.633 63.2081 13.7227C63.8353 13.8036 64.4458 13.9834 65.0168 14.2552C65.5469 14.5068 66.0066 14.8855 66.3551 15.3575C66.7019 15.8285 66.8752 16.4518 66.8752 17.2276V23.891C66.8743 24.4447 66.9075 24.9978 66.9746 25.5474C66.9934 25.6963 66.9803 25.8474 66.9362 25.9909C66.892 26.1343 66.8179 26.2667 66.7186 26.3793C66.6194 26.4919 66.4973 26.582 66.3605 26.6438C66.2238 26.7056 66.0754 26.7375 65.9253 26.7375H63.7505C63.6163 26.3354 63.5328 25.9181 63.5021 25.4952C62.9565 26.0632 62.274 26.4812 61.5202 26.7093C60.7659 26.9422 59.981 27.0617 59.1914 27.0638C58.6144 27.0681 58.0395 26.9931 57.4829 26.841C56.9788 26.7046 56.5071 26.4686 56.0957 26.147C55.6964 25.83 55.3783 25.4227 55.1673 24.9586C54.9465 24.4799 54.8361 23.9101 54.8361 23.2492C54.8361 22.5226 54.9638 21.9239 55.2195 21.4529C55.4569 21.0039 55.7975 20.6175 56.2133 20.3258C56.6343 20.0375 57.1014 19.8235 57.5947 19.693C58.1128 19.5541 58.6381 19.4435 59.1682 19.3618C59.6966 19.2795 60.2167 19.2135 60.7285 19.1638C61.1877 19.1228 61.6433 19.0484 62.0917 18.9411C62.4334 18.8673 62.7546 18.7192 63.0325 18.5071C63.2633 18.3172 63.3707 18.0411 63.3546 17.6789C63.3546 17.299 63.2929 16.9976 63.1691 16.7746C63.0526 16.5601 62.8811 16.3806 62.6722 16.2545C62.4511 16.1257 62.2069 16.0413 61.9534 16.006C61.6622 15.9632 61.3682 15.9425 61.0739 15.9439C60.3804 15.9439 59.8357 16.0927 59.4399 16.3903C59.0948 16.6487 58.874 17.0572 58.7773 17.616C58.7662 17.6855 58.7312 17.7491 58.6783 17.7956C58.6254 17.8422 58.558 17.8689 58.4875 17.8711H55.5599ZM63.3538 20.4723C63.1908 20.6121 63.0013 20.7175 62.7965 20.7821C62.5614 20.8594 62.3216 20.9214 62.0784 20.9676C61.8217 21.0173 61.5542 21.0587 61.2734 21.0918C60.9927 21.1249 60.7119 21.1655 60.4312 21.2152C60.167 21.265 59.9062 21.3311 59.6502 21.4131C59.4111 21.4869 59.1855 21.5988 58.9819 21.7444C58.7912 21.8854 58.6348 22.0674 58.5239 22.2769C58.3991 22.5311 58.3394 22.8123 58.35 23.0952C58.3411 23.3695 58.4008 23.6416 58.5239 23.8869C58.6329 24.0951 58.7952 24.2706 58.9943 24.3954C59.2071 24.5248 59.4422 24.613 59.6875 24.6554C59.9571 24.7056 60.2307 24.7306 60.5049 24.73C61.1978 24.73 61.7345 24.6143 62.1149 24.383C62.4627 24.1844 62.7531 23.8991 62.9579 23.5548C63.1309 23.2534 63.2434 22.9212 63.2892 22.5767C63.3249 22.3137 63.3454 22.0488 63.3505 21.7833L63.3538 20.4723Z" fill="#fff"/>
<path d="M71.094 14.4957V26.3005C71.094 26.4322 71.0416 26.5587 70.9485 26.6519C70.8552 26.745 70.7288 26.7974 70.5971 26.7974H68.0769C67.9452 26.7974 67.8188 26.745 67.7255 26.6519C67.6324 26.5587 67.58 26.4322 67.58 26.3005V14.4957C67.5795 14.4301 67.592 14.365 67.6166 14.3043C67.6414 14.2435 67.6779 14.1883 67.7241 14.1416C67.7703 14.0951 67.8253 14.0581 67.8858 14.0329C67.9464 14.0076 68.0113 13.9946 68.0769 13.9946H70.5938C70.6596 13.9942 70.7249 14.0069 70.7859 14.0319C70.8468 14.0569 70.9022 14.0939 70.9487 14.1405C70.9953 14.1871 71.0321 14.2425 71.057 14.3035C71.082 14.3645 71.0946 14.4298 71.094 14.4957Z" fill="#fff"/>
<path d="M74.3057 13.9578C74.4656 13.9578 74.6189 14.0214 74.732 14.1344C74.845 14.2475 74.9086 14.4008 74.9086 14.5608V15.7417H74.9823C75.4289 14.998 76.007 14.4572 76.7165 14.1193C77.3957 13.7877 78.1412 13.6138 78.897 13.6108C79.8356 13.6108 80.6086 13.739 81.2159 13.9951C81.7761 14.2192 82.2676 14.5864 82.6412 15.0601C83.0039 15.5517 83.2533 16.1173 83.3717 16.7165C83.5178 17.4295 83.5883 18.156 83.582 18.8838V26.1593C83.582 26.2385 83.5665 26.3168 83.5361 26.3899C83.5058 26.463 83.4614 26.5294 83.4054 26.5853C83.3494 26.6413 83.2829 26.6856 83.2098 26.7158C83.1366 26.746 83.0582 26.7615 82.9791 26.7614H80.6669C80.5878 26.7615 80.5094 26.746 80.4363 26.7158C80.3632 26.6855 80.2968 26.6412 80.2408 26.5853C80.1849 26.5293 80.1405 26.4629 80.1104 26.3899C80.0802 26.3167 80.0647 26.2384 80.0648 26.1593V19.5314C80.0648 18.4747 79.8991 17.6863 79.5679 17.1662C79.2366 16.6461 78.6503 16.386 77.8088 16.386C76.8515 16.386 76.158 16.6709 75.7285 17.2407C75.2989 17.8105 75.0841 18.7491 75.0841 20.0565V26.1668C75.0841 26.3264 75.0207 26.4796 74.9078 26.5925C74.7949 26.7054 74.6417 26.7688 74.4821 26.7688H72.1698C72.0907 26.7689 72.0124 26.7534 71.9392 26.7232C71.8662 26.693 71.7998 26.6487 71.7438 26.5928C71.6879 26.5368 71.6436 26.4704 71.6133 26.3973C71.5831 26.3242 71.5676 26.2459 71.5677 26.1668V14.5583C71.5676 14.4792 71.5831 14.4008 71.6133 14.3276C71.6435 14.2545 71.6878 14.188 71.7438 14.132C71.7997 14.076 71.8661 14.0316 71.9392 14.0012C72.0123 13.9709 72.0906 13.9554 72.1698 13.9554L74.3057 13.9578Z" fill="#fff"/>
<path d="M86.5072 14.0323C86.9453 14.0323 87.3006 14.4116 87.3006 14.8804V15.8154H87.3693C87.7867 15.0727 88.3275 14.5319 88.9925 14.193C89.622 13.8634 90.3209 13.6894 91.0315 13.6853C91.9152 13.6853 92.6373 13.8134 93.1988 14.0696C93.7305 14.3006 94.1902 14.6694 94.5314 15.1379C94.8742 15.6353 95.1069 16.2 95.2146 16.7943C95.3521 17.5084 95.4183 18.2344 95.4117 18.9616V25.9911C95.4117 26.4599 95.0564 26.8392 94.6183 26.8392H92.9139C92.4758 26.8392 92.1214 26.4599 92.1214 25.9911V19.6101C92.1214 18.5533 91.9665 17.7646 91.6568 17.244C91.347 16.7233 90.7988 16.463 90.012 16.463C89.1159 16.463 88.4667 16.7479 88.065 17.3177C87.6633 17.8875 87.4621 18.8247 87.4629 20.1293V25.9944C87.4629 26.4632 87.1076 26.8425 86.6695 26.8425H84.9643C84.5262 26.8425 84.1718 26.4632 84.1718 25.9944V14.8804C84.1718 14.4116 84.5262 14.0323 84.9643 14.0323H86.5072Z" fill="#fff"/>
<path d="M101.334 30.4806C100.657 30.9262 99.7151 31.1492 98.5101 31.1498C98.1465 31.1498 97.7871 31.1374 97.4334 31.1125C97.2678 31.1009 97.0947 31.0877 96.9241 31.0744C96.7692 31.0613 96.6251 30.9909 96.52 30.8768C96.4148 30.7627 96.3568 30.6134 96.356 30.4583V28.1278L97.3705 28.223C97.7167 28.2557 98.0645 28.264 98.4115 28.2479C98.8728 28.1982 99.2165 28.0168 99.4393 27.7029C99.6571 27.4001 99.773 27.0358 99.7705 26.6627C99.7722 26.3912 99.7225 26.1219 99.6223 25.8694L95.4483 14.689C95.4144 14.5958 95.4028 14.4956 95.4152 14.3972C95.4284 14.2986 95.4649 14.2047 95.5212 14.1233C95.5783 14.0419 95.6545 13.9755 95.7423 13.9298C95.8309 13.8841 95.9287 13.8604 96.028 13.8608H98.438C98.5664 13.8618 98.6914 13.9031 98.7958 13.9788C98.9001 14.0546 98.9772 14.1611 99.0177 14.2832L101.776 22.6295H101.826L104.489 14.289C104.528 14.1648 104.607 14.0563 104.712 13.9794C104.817 13.9024 104.944 13.8609 105.075 13.8608H107.382C107.482 13.8604 107.579 13.8841 107.668 13.9298C107.756 13.9755 107.832 14.0419 107.889 14.1233C107.945 14.2047 107.982 14.2986 107.995 14.3972C108.008 14.4956 107.996 14.5958 107.962 14.689L102.919 28.2512C102.539 29.2914 102.011 30.0345 101.334 30.4806Z" fill="#fff"/>
<path d="M34.4674 30.1241H34.0777C34.0838 30.2708 34.1144 30.3961 34.1693 30.5001C34.2244 30.601 34.2977 30.6834 34.3895 30.7476C34.4812 30.8087 34.5866 30.8531 34.7058 30.8806C34.825 30.9081 34.9503 30.9219 35.0817 30.9219C35.2009 30.9219 35.3202 30.9096 35.4393 30.8852C35.5616 30.8638 35.6702 30.8241 35.7649 30.766C35.8627 30.7079 35.9406 30.6315 35.9987 30.5368C36.0598 30.442 36.0904 30.3228 36.0904 30.1792C36.0904 30.066 36.0674 29.9713 36.0216 29.8949C35.9788 29.8185 35.9208 29.7558 35.8474 29.7069C35.7771 29.6549 35.6946 29.6137 35.5998 29.5831C35.5081 29.5526 35.4133 29.5266 35.3155 29.5052C35.2239 29.4837 35.1322 29.4639 35.0405 29.4456C34.9488 29.4242 34.8663 29.3997 34.7929 29.3722C34.7196 29.3416 34.6584 29.3049 34.6095 29.2622C34.5636 29.2163 34.5408 29.1598 34.5408 29.0925C34.5408 29.0314 34.556 28.9825 34.5866 28.9458C34.6171 28.9061 34.6569 28.8755 34.7058 28.8542C34.7547 28.8297 34.8082 28.8128 34.8663 28.8037C34.9274 28.7945 34.987 28.79 35.0451 28.79C35.1092 28.79 35.1719 28.7976 35.2331 28.8128C35.2972 28.8251 35.3553 28.8465 35.4073 28.877C35.4592 28.9076 35.502 28.9489 35.5357 29.0008C35.5693 29.0498 35.5892 29.1124 35.5952 29.1888H35.9849C35.9758 29.0451 35.9452 28.926 35.8933 28.8312C35.8413 28.7334 35.7709 28.657 35.6823 28.602C35.5968 28.5439 35.4974 28.5042 35.3844 28.4827C35.2712 28.4583 35.1474 28.4461 35.013 28.4461C34.9091 28.4461 34.8036 28.4599 34.6966 28.4874C34.5927 28.5118 34.498 28.5516 34.4123 28.6065C34.3298 28.6586 34.2611 28.7273 34.206 28.8128C34.1541 28.8985 34.1281 29.0008 34.1281 29.12C34.1281 29.2729 34.1663 29.3921 34.2427 29.4777C34.3192 29.5633 34.4139 29.6305 34.5269 29.6794C34.6431 29.7252 34.7684 29.7619 34.9029 29.7894C35.0374 29.8139 35.1612 29.8429 35.2743 29.8765C35.3905 29.9071 35.4867 29.9484 35.5632 30.0004C35.6395 30.0523 35.6778 30.1287 35.6778 30.2296C35.6778 30.3029 35.6594 30.364 35.6227 30.413C35.5861 30.4588 35.5387 30.494 35.4806 30.5184C35.4256 30.5429 35.3645 30.5597 35.2972 30.5688C35.23 30.578 35.1658 30.5826 35.1047 30.5826C35.0252 30.5826 34.9472 30.5749 34.8708 30.5597C34.7975 30.5444 34.7303 30.52 34.6691 30.4863C34.611 30.4496 34.5636 30.4023 34.5269 30.3442C34.4903 30.283 34.4705 30.2097 34.4674 30.1241ZM36.5214 28.5011V30.8714H36.9111V29.3951C36.9111 29.3493 36.9218 29.2928 36.9431 29.2255C36.9676 29.1552 37.0043 29.088 37.0532 29.0238C37.1051 28.9596 37.1709 28.9046 37.2503 28.8587C37.3329 28.8128 37.4307 28.79 37.5437 28.79C37.6324 28.79 37.7042 28.8037 37.7592 28.8312C37.8173 28.8557 37.8632 28.8923 37.8968 28.9412C37.9304 28.9871 37.9534 29.0421 37.9655 29.1063C37.9808 29.1704 37.9885 29.2408 37.9885 29.3172V30.8714H38.3782V29.3951C38.3782 29.2118 38.4332 29.065 38.5433 28.955C38.6532 28.845 38.8045 28.79 38.9971 28.79C39.0919 28.79 39.1683 28.8037 39.2263 28.8312C39.2875 28.8587 39.3349 28.8969 39.3685 28.9458C39.4022 28.9916 39.425 29.0467 39.4373 29.1109C39.4495 29.1751 39.4556 29.2438 39.4556 29.3172V30.8714H39.8453V29.1338C39.8453 29.0115 39.8254 28.9076 39.7857 28.822C39.749 28.7334 39.6956 28.6615 39.6253 28.6065C39.558 28.5516 39.4754 28.5118 39.3776 28.4874C39.2829 28.4599 39.1759 28.4461 39.0567 28.4461C38.9009 28.4461 38.7572 28.4812 38.6257 28.5516C38.4974 28.6219 38.3934 28.7212 38.314 28.8495C38.2651 28.7029 38.181 28.5989 38.0618 28.5378C37.9427 28.4767 37.8097 28.4461 37.663 28.4461C37.3298 28.4461 37.0746 28.5805 36.8973 28.8495H36.8882V28.5011H36.5214ZM42.5298 30.8622C42.4627 30.902 42.3694 30.9219 42.2502 30.9219C42.1494 30.9219 42.0684 30.8944 42.0072 30.8393C41.9491 30.7812 41.9201 30.6881 41.9201 30.5597C41.8131 30.6881 41.6878 30.7812 41.5441 30.8393C41.4035 30.8944 41.2507 30.9219 41.0857 30.9219C40.9787 30.9219 40.8763 30.9096 40.7785 30.8852C40.6838 30.8607 40.6012 30.8225 40.531 30.7706C40.4606 30.7186 40.4041 30.6514 40.3613 30.5688C40.3215 30.4833 40.3017 30.3808 40.3017 30.2616C40.3017 30.1272 40.3246 30.0172 40.3705 29.9315C40.4163 29.846 40.4759 29.7772 40.5493 29.7252C40.6257 29.6703 40.7112 29.6289 40.806 29.6014C40.9038 29.5739 41.0032 29.551 41.1041 29.5327C41.211 29.5113 41.3118 29.496 41.4066 29.4868C41.5044 29.4746 41.59 29.4593 41.6633 29.441C41.7367 29.4196 41.7947 29.3906 41.8376 29.3539C41.8804 29.3141 41.9017 29.2576 41.9017 29.1843C41.9017 29.0986 41.8849 29.0299 41.8513 28.9779C41.8208 28.926 41.7795 28.8862 41.7275 28.8587C41.6786 28.8312 41.6221 28.8128 41.5579 28.8037C41.4968 28.7945 41.4357 28.79 41.3745 28.79C41.2095 28.79 41.0719 28.822 40.9619 28.8862C40.8519 28.9473 40.7922 29.065 40.7831 29.2393H40.3934C40.3995 29.0925 40.4301 28.9688 40.4851 28.8679C40.5401 28.767 40.6134 28.6861 40.7051 28.6249C40.7968 28.5607 40.9007 28.5149 41.0169 28.4874C41.1361 28.4599 41.263 28.4461 41.3975 28.4461C41.5044 28.4461 41.6099 28.4537 41.7138 28.469C41.8208 28.4843 41.9171 28.5164 42.0026 28.5653C42.0882 28.6112 42.157 28.6769 42.2089 28.7624C42.2609 28.848 42.2868 28.9596 42.2868 29.0972V30.3166C42.2868 30.4084 42.2915 30.4756 42.3006 30.5184C42.3129 30.5612 42.3495 30.5826 42.4107 30.5826C42.4443 30.5826 42.484 30.5749 42.5298 30.5597V30.8622ZM41.8972 29.6473C41.8482 29.684 41.7841 29.7115 41.7046 29.7298C41.6251 29.7451 41.5411 29.7589 41.4525 29.7711C41.3668 29.7802 41.2798 29.7925 41.1911 29.8077C41.1025 29.82 41.023 29.8414 40.9527 29.872C40.8824 29.9026 40.8244 29.9469 40.7785 30.0049C40.7357 30.0599 40.7143 30.1363 40.7143 30.2342C40.7143 30.2983 40.7266 30.3533 40.751 30.3992C40.7785 30.442 40.8121 30.4771 40.8519 30.5046C40.8946 30.5321 40.9436 30.552 40.9985 30.5643C41.0536 30.5765 41.1117 30.5826 41.1728 30.5826C41.3012 30.5826 41.4112 30.5658 41.5029 30.5321C41.5946 30.4954 41.6694 30.4511 41.7275 30.3992C41.7856 30.3442 41.8284 30.2861 41.8559 30.225C41.8834 30.1608 41.8972 30.1012 41.8972 30.0462V29.6473ZM42.8788 28.5011V30.8714H43.2685V29.8169C43.2685 29.6641 43.2838 29.5296 43.3144 29.4135C43.3449 29.2943 43.3939 29.1934 43.4611 29.1109C43.5284 29.0283 43.617 28.9657 43.727 28.9229C43.837 28.8801 43.97 28.8587 44.1259 28.8587V28.4461C43.915 28.44 43.7408 28.4827 43.6032 28.5745C43.4657 28.6662 43.3496 28.8083 43.2547 29.0008H43.2456V28.5011H42.8788ZM44.9604 28.5011V27.7905H44.5706V28.5011H44.1671V28.845H44.5706V30.3533C44.5706 30.4634 44.5813 30.552 44.6028 30.6193C44.6241 30.6865 44.6562 30.7385 44.699 30.7751C44.7449 30.8118 44.8029 30.8378 44.8732 30.8531C44.9466 30.8653 45.0337 30.8714 45.1345 30.8714H45.4326V30.5276H45.2538C45.1927 30.5276 45.1422 30.5261 45.1025 30.523C45.0658 30.5169 45.0367 30.5062 45.0153 30.4909C44.994 30.4756 44.9787 30.4542 44.9695 30.4267C44.9634 30.3992 44.9604 30.3625 44.9604 30.3166V28.845H45.4326V28.5011H44.9604ZM47.3799 30.1241H46.9902C46.9963 30.2708 47.0269 30.3961 47.082 30.5001C47.137 30.601 47.2103 30.6834 47.302 30.7476C47.3937 30.8087 47.4991 30.8531 47.6184 30.8806C47.7375 30.9081 47.8629 30.9219 47.9943 30.9219C48.1135 30.9219 48.2327 30.9096 48.3519 30.8852C48.4742 30.8638 48.5827 30.8241 48.6774 30.766C48.7753 30.7079 48.8532 30.6315 48.9112 30.5368C48.9724 30.442 49.0029 30.3228 49.0029 30.1792C49.0029 30.066 48.9801 29.9713 48.9342 29.8949C48.8914 29.8185 48.8333 29.7558 48.7599 29.7069C48.6897 29.6549 48.6071 29.6137 48.5124 29.5831C48.4207 29.5526 48.326 29.5266 48.2282 29.5052C48.1364 29.4837 48.0447 29.4639 47.953 29.4456C47.8614 29.4242 47.7788 29.3997 47.7055 29.3722C47.6321 29.3416 47.571 29.3049 47.5221 29.2622C47.4763 29.2163 47.4533 29.1598 47.4533 29.0925C47.4533 29.0314 47.4686 28.9825 47.4991 28.9458C47.5297 28.9061 47.5694 28.8755 47.6184 28.8542C47.6672 28.8297 47.7207 28.8128 47.7788 28.8037C47.8399 28.7945 47.8995 28.79 47.9576 28.79C48.0218 28.79 48.0845 28.7976 48.1456 28.8128C48.2098 28.8251 48.2678 28.8465 48.3198 28.877C48.3718 28.9076 48.4146 28.9489 48.4482 29.0008C48.4818 29.0498 48.5017 29.1124 48.5078 29.1888H48.8975C48.8883 29.0451 48.8577 28.926 48.8058 28.8312C48.7539 28.7334 48.6836 28.657 48.5949 28.602C48.5093 28.5439 48.41 28.5042 48.2969 28.4827C48.1838 28.4583 48.06 28.4461 47.9255 28.4461C47.8216 28.4461 47.7162 28.4599 47.6092 28.4874C47.5052 28.5118 47.4105 28.5516 47.325 28.6065C47.2424 28.6586 47.1736 28.7273 47.1186 28.8128C47.0666 28.8985 47.0406 29.0008 47.0406 29.12C47.0406 29.2729 47.0789 29.3921 47.1553 29.4777C47.2317 29.5633 47.3264 29.6305 47.4396 29.6794C47.5557 29.7252 47.681 29.7619 47.8155 29.7894C47.95 29.8139 48.0738 29.8429 48.1868 29.8765C48.303 29.9071 48.3993 29.9484 48.4757 30.0004C48.5521 30.0523 48.5903 30.1287 48.5903 30.2296C48.5903 30.3029 48.572 30.364 48.5353 30.413C48.4986 30.4588 48.4513 30.494 48.3932 30.5184C48.3381 30.5429 48.277 30.5597 48.2098 30.5688C48.1425 30.578 48.0783 30.5826 48.0172 30.5826C47.9377 30.5826 47.8598 30.5749 47.7834 30.5597C47.7101 30.5444 47.6428 30.52 47.5817 30.4863C47.5236 30.4496 47.4763 30.4023 47.4396 30.3442C47.4029 30.283 47.383 30.2097 47.3799 30.1241ZM49.7182 29.6886C49.7182 29.5449 49.7365 29.4181 49.7732 29.308C49.813 29.195 49.8665 29.1002 49.9337 29.0238C50.0009 28.9473 50.0789 28.8893 50.1675 28.8495C50.2592 28.8098 50.3555 28.79 50.4564 28.79C50.5571 28.79 50.652 28.8098 50.7406 28.8495C50.8323 28.8893 50.9118 28.9473 50.979 29.0238C51.0463 29.1002 51.0982 29.195 51.1349 29.308C51.1746 29.4181 51.1945 29.5449 51.1945 29.6886C51.1945 29.8322 51.1746 29.9606 51.1349 30.0737C51.0982 30.1837 51.0463 30.277 50.979 30.3533C50.9118 30.4267 50.8323 30.4833 50.7406 30.523C50.652 30.5627 50.5571 30.5826 50.4564 30.5826C50.3555 30.5826 50.2592 30.5627 50.1675 30.523C50.0789 30.4833 50.0009 30.4267 49.9337 30.3533C49.8665 30.277 49.813 30.1837 49.7732 30.0737C49.7365 29.9606 49.7182 29.8322 49.7182 29.6886ZM49.3055 29.6886C49.3055 29.8628 49.33 30.0248 49.3789 30.1745C49.4278 30.3243 49.5011 30.4558 49.599 30.5688C49.6968 30.6789 49.8175 30.766 49.9612 30.8302C50.1048 30.8913 50.2699 30.9219 50.4564 30.9219C50.6458 30.9219 50.8109 30.8913 50.9514 30.8302C51.0951 30.766 51.2159 30.6789 51.3137 30.5688C51.4115 30.4558 51.4849 30.3243 51.5337 30.1745C51.5827 30.0248 51.6071 29.8628 51.6071 29.6886C51.6071 29.5143 51.5827 29.3523 51.5337 29.2026C51.4849 29.0498 51.4115 28.9184 51.3137 28.8083C51.2159 28.6952 51.0951 28.6065 50.9514 28.5424C50.8109 28.4782 50.6458 28.4461 50.4564 28.4461C50.2699 28.4461 50.1048 28.4782 49.9612 28.5424C49.8175 28.6065 49.6968 28.6952 49.599 28.8083C49.5011 28.9184 49.4278 29.0498 49.3789 29.2026C49.33 29.3523 49.3055 29.5143 49.3055 29.6886ZM52.0895 27.5979V30.8714H52.4792V27.5979H52.0895ZM55.2377 30.7852V28.4149H54.848V29.7537C54.848 29.8607 54.8327 29.96 54.8021 30.0516C54.7746 30.1403 54.7318 30.2183 54.6738 30.2855C54.6157 30.3528 54.5423 30.4047 54.4537 30.4414C54.3682 30.4781 54.2657 30.4964 54.1465 30.4964C53.9967 30.4964 53.879 30.4536 53.7935 30.368C53.7079 30.2825 53.6651 30.1663 53.6651 30.0196V28.4149H53.2754V29.9737C53.2754 30.1021 53.2876 30.2198 53.3121 30.3268C53.3396 30.4307 53.3854 30.5209 53.4496 30.5972C53.5138 30.6737 53.5979 30.7333 53.7018 30.776C53.8057 30.8158 53.9356 30.8357 54.0915 30.8357C54.2657 30.8357 54.417 30.802 54.5454 30.7348C54.6738 30.6645 54.7792 30.556 54.8617 30.4092H54.8709V30.7852H55.2377ZM56.364 28.4149V27.7043H55.9743V28.4149H55.5708V28.7588H55.9743V30.2671C55.9743 30.3772 55.985 30.4658 56.0064 30.5331C56.0278 30.6003 56.0599 30.6523 56.1027 30.6889C56.1486 30.7256 56.2066 30.7516 56.2769 30.7669C56.3502 30.7791 56.4373 30.7852 56.5382 30.7852H56.8363V30.4414H56.6575C56.5963 30.4414 56.5458 30.4399 56.5062 30.4368C56.4695 30.4307 56.4404 30.42 56.419 30.4047C56.3976 30.3895 56.3824 30.368 56.3732 30.3405C56.367 30.313 56.364 30.2763 56.364 30.2304V28.7588H56.8363V28.4149H56.364ZM57.6818 27.9885V27.5117H57.2921V27.9885H57.6818ZM57.2921 28.4149V30.7852H57.6818V28.4149H57.2921ZM58.5698 29.6024C58.5698 29.4588 58.5881 29.3319 58.6248 29.2218C58.6646 29.1088 58.7181 29.014 58.7853 28.9376C58.8525 28.8611 58.9305 28.8031 59.0191 28.7633C59.1108 28.7236 59.2071 28.7038 59.308 28.7038C59.4088 28.7038 59.5036 28.7236 59.5922 28.7633C59.6839 28.8031 59.7634 28.8611 59.8306 28.9376C59.8979 29.014 59.9498 29.1088 59.9865 29.2218C60.0262 29.3319 60.0461 29.4588 60.0461 29.6024C60.0461 29.746 60.0262 29.8744 59.9865 29.9875C59.9498 30.0975 59.8979 30.1908 59.8306 30.2671C59.7634 30.3405 59.6839 30.3971 59.5922 30.4368C59.5036 30.4765 59.4088 30.4964 59.308 30.4964C59.2071 30.4964 59.1108 30.4765 59.0191 30.4368C58.9305 30.3971 58.8525 30.3405 58.7853 30.2671C58.7181 30.1908 58.6646 30.0975 58.6248 29.9875C58.5881 29.8744 58.5698 29.746 58.5698 29.6024ZM58.1571 29.6024C58.1571 29.7766 58.1816 29.9386 58.2305 30.0883C58.2795 30.2381 58.3527 30.3696 58.4506 30.4826C58.5484 30.5927 58.6691 30.6798 58.8128 30.744C58.9564 30.8051 59.1215 30.8357 59.308 30.8357C59.4974 30.8357 59.6625 30.8051 59.8031 30.744C59.9467 30.6798 60.0675 30.5927 60.1653 30.4826C60.2631 30.3696 60.3365 30.2381 60.3853 30.0883C60.4343 29.9386 60.4587 29.7766 60.4587 29.6024C60.4587 29.4281 60.4343 29.2661 60.3853 29.1164C60.3365 28.9636 60.2631 28.8322 60.1653 28.7221C60.0675 28.609 59.9467 28.5204 59.8031 28.4562C59.6625 28.392 59.4974 28.3599 59.308 28.3599C59.1215 28.3599 58.9564 28.392 58.8128 28.4562C58.6691 28.5204 58.5484 28.609 58.4506 28.7221C58.3527 28.8322 58.2795 28.9636 58.2305 29.1164C58.1816 29.2661 58.1571 29.4281 58.1571 29.6024ZM60.9182 28.4149V30.7852H61.3079V29.4465C61.3079 29.3395 61.3217 29.2417 61.3492 29.1531C61.3797 29.0614 61.424 28.9819 61.4821 28.9146C61.5402 28.8474 61.612 28.7955 61.6976 28.7588C61.7863 28.7221 61.8901 28.7038 62.0094 28.7038C62.1591 28.7038 62.2768 28.7465 62.3623 28.8322C62.448 28.9177 62.4908 29.0338 62.4908 29.1806V30.7852H62.8804V29.2265C62.8804 29.0981 62.8667 28.9819 62.8392 28.878C62.8148 28.771 62.7705 28.6793 62.7062 28.6029C62.642 28.5265 62.558 28.4669 62.4541 28.4241C62.3502 28.3813 62.2202 28.3599 62.0644 28.3599C61.7129 28.3599 61.4562 28.5035 61.2942 28.7908H61.285V28.4149H60.9182ZM63.7041 30.0379H63.3145C63.3206 30.1846 63.3512 30.3099 63.4062 30.4139C63.4612 30.5148 63.5345 30.5972 63.6262 30.6614C63.7179 30.7225 63.8234 30.7669 63.9426 30.7944C64.0618 30.8219 64.1871 30.8357 64.3186 30.8357C64.4377 30.8357 64.5569 30.8234 64.6762 30.799C64.7984 30.7776 64.9069 30.7379 65.0016 30.6798C65.0995 30.6217 65.1774 30.5453 65.2355 30.4506C65.2966 30.3558 65.3272 30.2366 65.3272 30.093C65.3272 29.9798 65.3043 29.8851 65.2584 29.8087C65.2156 29.7323 65.1576 29.6696 65.0842 29.6207C65.0139 29.5687 64.9313 29.5275 64.8366 29.4969C64.7449 29.4664 64.6502 29.4404 64.5524 29.419C64.4607 29.3976 64.369 29.3777 64.2772 29.3594C64.1856 29.338 64.1031 29.3135 64.0297 29.286C63.9563 29.2554 63.8952 29.2187 63.8463 29.176C63.8005 29.1301 63.7775 29.0736 63.7775 29.0063C63.7775 28.9452 63.7928 28.8963 63.8234 28.8597C63.854 28.8199 63.8937 28.7893 63.9426 28.768C63.9915 28.7435 64.0449 28.7266 64.1031 28.7175C64.1642 28.7083 64.2238 28.7038 64.2819 28.7038C64.3461 28.7038 64.4087 28.7114 64.4699 28.7266C64.5341 28.7389 64.5921 28.7603 64.644 28.7908C64.696 28.8214 64.7388 28.8627 64.7724 28.9146C64.806 28.9636 64.8259 29.0262 64.832 29.1026H65.2218C65.2126 28.959 65.182 28.8398 65.13 28.745C65.0781 28.6472 65.0078 28.5708 64.9192 28.5158C64.8335 28.4577 64.7342 28.418 64.6211 28.3965C64.5081 28.3721 64.3842 28.3599 64.2497 28.3599C64.1458 28.3599 64.0404 28.3737 63.9334 28.4012C63.8295 28.4256 63.7347 28.4654 63.6492 28.5204C63.5667 28.5724 63.4979 28.6411 63.4429 28.7266C63.3909 28.8123 63.3649 28.9146 63.3649 29.0338C63.3649 29.1867 63.4031 29.3059 63.4795 29.3915C63.5559 29.4771 63.6507 29.5443 63.7638 29.5932C63.88 29.639 64.0053 29.6757 64.1398 29.7032C64.2742 29.7277 64.398 29.7567 64.5111 29.7904C64.6272 29.8209 64.7235 29.8622 64.7999 29.9142C64.8763 29.9661 64.9145 30.0425 64.9145 30.1434C64.9145 30.2167 64.8962 30.2778 64.8595 30.3268C64.8228 30.3726 64.7755 30.4078 64.7174 30.4322C64.6624 30.4567 64.6012 30.4735 64.5341 30.4826C64.4668 30.4918 64.4026 30.4964 64.3414 30.4964C64.262 30.4964 64.1841 30.4888 64.1076 30.4735C64.0343 30.4582 63.967 30.4338 63.9059 30.4001C63.8478 30.3635 63.8005 30.3161 63.7638 30.258C63.7271 30.1968 63.7072 30.1235 63.7041 30.0379Z" fill="#fff"/>
<path d="M69.3351 12.9521C70.3368 12.9521 71.1488 12.1401 71.1488 11.1384C71.1488 10.1367 70.3368 9.32471 69.3351 9.32471C68.3334 9.32471 67.5214 10.1367 67.5214 11.1384C67.5214 12.1401 68.3334 12.9521 69.3351 12.9521Z" fill="#fff"/>
</svg>
